<svg width="631" height="128" viewBox="0 0 631 128" fill="none" xmlns="http://www.w3.org/2000/svg">
<path d="M381.609 34.1855V0H398.415C404.121 0 408.689 1.63737 412.147 4.89789C415.605 8.1584 417.327 12.3444 417.327 17.4416C417.327 23.3361 415.036 27.8211 410.453 30.8681C407.124 33.0607 402.869 34.1713 397.689 34.1713H381.609V34.1855ZM390.332 28.2056H397.077C401.047 28.2056 403.936 27.2943 405.743 25.4576C407.55 23.6209 408.447 20.9584 408.447 17.4558C408.447 13.9533 407.494 11.1484 405.587 9.06963C403.68 6.97664 400.919 5.93726 397.305 5.93726H390.318V28.2056H390.332Z" fill="#74FAFD"/>
<path d="M423.403 34.1855V0H455.079V5.8376H432.126V13.4834H452.247V19.1786H432.126V28.4049H455.25V34.1855H423.403Z" fill="#74FAFD"/>
<path d="M473.336 34.1855L458.822 0H467.971L475.556 19.7909L477.42 25.244H477.534C478.217 23.0799 478.843 21.2574 479.398 19.7909L486.954 0H495.806L481.291 34.1855H473.336Z" fill="#74FAFD"/>
<path d="M381.609 77.2414V43.0558H401.36C405.501 43.0558 408.831 43.9386 411.393 45.6899C413.94 47.4411 415.221 49.7335 415.221 52.5811C415.221 56.9521 412.588 59.7001 407.337 60.8534V60.9958C409.386 61.4798 410.923 62.2345 411.948 63.2596C412.972 64.299 413.627 65.8367 413.911 67.8727C413.997 68.6416 414.082 69.5386 414.182 70.578C414.281 71.6173 414.367 72.4289 414.424 73.0411C414.481 73.6534 414.566 74.2514 414.666 74.8636C414.765 75.4758 414.907 75.9457 415.092 76.2732C415.277 76.6149 415.505 76.8285 415.79 76.9139V77.2556H407.422C407.266 77.1986 407.124 77.0705 406.996 76.8996C406.882 76.7288 406.768 76.4725 406.697 76.1593C406.611 75.846 406.54 75.5186 406.483 75.1768C406.426 74.8351 406.369 74.408 406.298 73.8812C406.241 73.3544 406.184 72.8988 406.142 72.5001C406.099 72.1014 406.056 71.5746 405.985 70.9197C405.928 70.2647 405.871 69.7522 405.829 69.3677C405.473 65.4807 402.655 63.5301 397.39 63.5301H390.346V77.2556H381.609V77.2414ZM390.332 48.6514V58.1624H399.61C401.901 58.1624 403.651 57.7352 404.875 56.8667C406.099 56.0124 406.711 54.8734 406.711 53.4781C406.711 52.04 406.127 50.8867 404.961 49.9897C403.794 49.0927 402.086 48.6514 399.838 48.6514H390.332Z" fill="#74FAFD"/>
<path d="M422.136 77.2414V43.0558H453.813V48.8934H430.859V56.5392H450.981V62.2345H430.859V71.4607H453.983V77.2414H422.136Z" fill="#74FAFD"/>
<path d="M460.743 77.2414V43.0558H473.037L479.114 60.2127C479.555 61.4941 480.01 62.9036 480.466 64.4414C480.921 65.9933 481.277 67.2035 481.519 68.1005L481.817 69.4389H481.931C482.7 66.1499 483.582 63.0745 484.578 60.2127L490.669 43.0558H503.134V77.2414H495.009V57.6356L495.364 50.5593H495.251C494.61 53.236 493.984 55.4002 493.386 57.0661L485.973 77.2414H477.605L470.376 57.0661L468.512 50.5593H468.398C468.64 53.4211 468.754 55.7846 468.754 57.6356V77.2414H460.743Z" fill="#74FAFD"/>
<path d="M545.07 72.9984C541.299 76.3301 536.276 77.996 530.015 77.996C523.754 77.996 518.716 76.3301 514.931 72.9984C511.131 69.6667 509.239 65.4096 509.239 60.2127C509.239 55.0158 511.131 50.7444 514.931 47.3984C518.73 44.0525 523.754 42.3724 530.015 42.3724C536.276 42.3724 541.299 44.0525 545.07 47.3984C548.841 50.7444 550.734 55.0158 550.734 60.2127C550.734 65.4096 548.841 69.6667 545.07 72.9984ZM521.249 68.9121C523.312 71.176 526.258 72.3008 530.072 72.3008C533.885 72.3008 536.803 71.176 538.809 68.9264C540.815 66.6767 541.826 63.7722 541.826 60.1984C541.826 56.6247 540.815 53.7201 538.809 51.4563C536.803 49.1924 533.885 48.0676 530.072 48.0676C526.258 48.0676 523.312 49.1924 521.249 51.4563C519.186 53.7201 518.147 56.6389 518.147 60.1984C518.147 63.7579 519.186 66.6483 521.249 68.9121Z" fill="#74FAFD"/>
<path d="M552.484 48.8792V43.0416H587.12V48.8792H574.171V77.2271H565.434V48.8792H552.484Z" fill="#74FAFD"/>
<path d="M624.702 72.9984C620.931 76.3301 615.908 77.996 609.647 77.996C603.385 77.996 598.348 76.3301 594.563 72.9984C590.763 69.6667 588.871 65.4096 588.871 60.2127C588.871 55.0158 590.763 50.7444 594.563 47.3984C598.362 44.0525 603.385 42.3724 609.647 42.3724C615.908 42.3724 620.931 44.0525 624.702 47.3984C628.473 50.7444 630.366 55.0158 630.366 60.2127C630.366 65.4096 628.473 69.6667 624.702 72.9984ZM600.881 68.9121C602.944 71.176 605.89 72.3008 609.703 72.3008C613.517 72.3008 616.434 71.176 618.441 68.9264C620.447 66.6767 621.458 63.7722 621.458 60.1984C621.458 56.6247 620.447 53.7201 618.441 51.4563C616.434 49.1924 613.517 48.0676 609.703 48.0676C605.89 48.0676 602.944 49.1924 600.881 51.4563C598.817 53.7201 597.779 56.6389 597.779 60.1984C597.779 63.7579 598.803 66.6483 600.881 68.9121Z" fill="#74FAFD"/>
<path d="M400.222 121.052C394.402 121.052 389.877 120.069 386.675 118.119C383.459 116.154 381.78 113.363 381.609 109.733H390.161C390.446 111.769 391.357 113.235 392.908 114.132C394.459 115.029 396.778 115.471 399.866 115.471C402.314 115.471 404.32 115.115 405.886 114.388C407.451 113.677 408.234 112.566 408.234 111.071C408.234 110.53 408.148 110.046 407.963 109.619C407.778 109.192 407.408 108.807 406.853 108.465C406.284 108.138 405.814 107.867 405.402 107.654C405.003 107.44 404.263 107.227 403.168 106.985C402.086 106.743 401.261 106.572 400.692 106.458C400.122 106.344 399.084 106.145 397.561 105.86C395.711 105.504 394.203 105.205 393.007 104.949C391.826 104.692 390.517 104.294 389.094 103.753C387.671 103.212 386.547 102.614 385.721 101.959C384.896 101.304 384.199 100.449 383.644 99.3815C383.075 98.3137 382.804 97.0892 382.804 95.7224C382.804 92.4334 384.313 89.9132 387.358 88.1477C390.389 86.3822 394.373 85.4995 399.311 85.4995C404.206 85.4995 408.12 86.4249 411.051 88.2759C413.982 90.1268 415.605 92.7609 415.932 96.1637H407.565C407.323 94.5121 406.455 93.2307 404.946 92.3337C403.438 91.4367 401.545 90.9953 399.254 90.9953C396.878 90.9953 395 91.3655 393.591 92.0917C392.182 92.832 391.485 93.8002 391.485 95.0105C391.485 96.3204 392.182 97.2743 393.562 97.8723C394.943 98.4845 397.39 99.0825 400.877 99.6948C402.968 100.051 404.676 100.378 405.999 100.677C407.323 100.976 408.76 101.418 410.311 101.973C411.862 102.528 413.058 103.14 413.926 103.81C414.794 104.479 415.505 105.362 416.089 106.458C416.672 107.554 416.957 108.821 416.957 110.259C416.957 113.634 415.406 116.282 412.318 118.19C409.23 120.098 405.203 121.052 400.222 121.052Z" fill="#74FAFD"/>
<path d="M423.588 120.283V86.1117H432.325V120.297H423.588V120.283Z" fill="#74FAFD"/>
<path d="M440.337 120.283V86.1117H452.631L458.708 103.269C459.149 104.55 459.604 105.96 460.06 107.497C460.515 109.049 460.871 110.259 461.113 111.156L461.411 112.495H461.525C462.294 109.206 463.176 106.13 464.172 103.269L470.263 86.1117H482.728V120.297H474.603V100.691L474.959 93.6151H474.845C474.204 96.2919 473.578 98.4561 472.981 100.122L465.567 120.297H457.199L449.97 100.122L448.106 93.6151H447.992C448.234 96.477 448.348 98.8405 448.348 100.691V120.297H440.337V120.283Z" fill="#74FAFD"/>
<path d="M490.683 120.283V86.1117H509.595C514.49 86.1117 518.247 87.1795 520.865 89.3153C523.441 91.4225 524.721 94.0138 524.721 97.1035C524.721 100.35 523.441 102.97 520.865 104.949C518.289 106.928 514.774 107.91 510.32 107.91H499.719V120.297H490.683V120.283ZM499.719 92.1344V102.272H508.755C511.003 102.272 512.725 101.816 513.935 100.905C515.144 99.9938 515.742 98.7408 515.742 97.1462C515.742 95.5515 515.144 94.3128 513.935 93.4443C512.725 92.5615 511.046 92.1344 508.869 92.1344H499.719Z" fill="#74FAFD"/>
<path d="M530.37 120.283V86.1117H539.108V114.502H559.343V120.283H530.37Z" fill="#74FAFD"/>
<path d="M565.362 120.283V86.1117H597.039V91.9493H574.085V99.5951H594.207V105.29H574.085V114.517H597.209V120.297H565.362V120.283Z" fill="#74FAFD"/>
<path d="M27.9479 121.109C19.3814 113.42 12.5794 104.521 7.55619 94.4125C2.51873 84.2892 0 73.0127 0 60.5544C0 48.0961 2.51873 36.7911 7.54196 26.6394C12.5794 16.4734 19.3814 7.60311 27.9479 0L38.8055 8.61402C30.8651 16.3026 25.1162 24.2474 21.5871 32.4627C18.058 40.6781 16.2935 50.0467 16.2935 60.5544C16.2935 70.9766 18.058 80.3168 21.5871 88.5749C25.1162 96.8329 30.8509 104.806 38.8055 112.495L27.9479 121.109Z" fill="#74FAFD"/>
<path d="M66.8816 61.0812L87.4014 8.61398H103.026L123.56 61.0812H107.537L101.447 44.1237L95.4841 26.2407H94.9576L88.9952 44.1237L82.9047 61.0812H66.8816Z" fill="#74FAFD"/>
<path d="M174.675 128C164.087 128 153.614 126.647 143.283 123.956C132.952 121.265 123.247 117.136 114.154 111.569L119.191 102.699C124.926 105.874 131.017 108.423 137.463 110.316C143.909 112.21 150.327 113.563 156.73 114.36C163.134 115.157 169.111 115.556 174.675 115.556C180.239 115.556 186.215 115.157 192.619 114.36C199.022 113.563 205.44 112.224 211.886 110.316C218.333 108.423 224.423 105.874 230.158 102.699L235.195 111.569C226.188 117.136 216.497 121.265 206.123 123.956C195.749 126.647 185.262 128 174.675 128Z" fill="#74FAFD"/>
<path d="M225.789 61.0812L246.309 8.61398H261.934L282.468 61.0812H266.445L260.354 44.1237L254.392 26.2407H253.865L247.903 44.1237L241.812 61.0812H225.789Z" fill="#74FAFD"/>
<path d="M321.401 121.109L310.544 112.495C318.484 104.806 324.233 96.8329 327.762 88.5749C331.291 80.3168 333.056 70.9766 333.056 60.5544C333.056 50.0467 331.291 40.6781 327.762 32.4627C324.233 24.2474 318.498 16.3026 310.544 8.61402L321.401 0C329.968 7.60311 336.77 16.4734 341.793 26.6394C346.831 36.7911 349.335 48.1103 349.335 60.5544C349.335 73.0127 346.816 84.2892 341.793 94.4125C336.756 104.521 329.968 113.42 321.401 121.109Z" fill="#74FAFD"/>
</svg>
