<svg width="456" height="133" viewBox="0 0 456 133" fill="none" xmlns="http://www.w3.org/2000/svg">
<path d="M0 76.2608C1.71 74.9508 3.72 75.2608 5.66 75.2608C18.78 75.2508 31.91 75.1708 45.03 75.3208C48.1 75.3608 49.94 74.4508 51.24 71.6508C52.48 68.9808 54.02 66.3908 55.76 64.0108C60.65 57.3308 59.79 50.1108 58.22 42.7208C55.53 29.9608 63.75 20.1508 75.79 21.6408C83.32 22.5708 89.3 29.2008 89.52 36.8708C89.72 43.9208 84.36 51.8508 77.34 52.2308C64.56 52.9408 60.48 62.3908 55.82 71.3708C53.91 75.0508 57.11 75.2608 59.75 75.2608C71.71 75.2608 83.67 75.2608 95.63 75.2608C97.12 75.2608 98.63 75.1308 100.11 75.3008C101.52 75.4608 103.97 74.3208 103.82 77.0608C103.69 79.4708 101.38 78.8008 99.87 78.8108C85.42 78.8608 70.97 78.9408 56.52 78.7708C52.83 78.7308 50.84 79.8708 48.61 83.0508C42.39 91.9208 40.79 100.981 43.43 111.521C46.11 122.211 39.91 130.211 28.95 131.911C28.58 131.971 28.27 132.471 27.94 132.761H24.95C24.04 131.061 22.13 131.421 20.72 130.751C14.67 127.851 10.47 120.861 11.19 114.671C12.02 107.631 17.03 101.011 23.63 100.311C32.85 99.3208 39.04 95.1708 42.43 86.6408C43.31 84.4308 46.15 82.4308 44.69 80.0408C43.25 77.6908 40.11 78.9508 37.73 78.8808C25.16 78.4708 12.57 79.5508 0.0200005 78.2508V76.2708L0 76.2608Z" fill="white"/>
<path d="M391.22 45.0008C391.22 30.7808 391.32 17.5809 391.15 4.37085C391.11 1.21085 392.17 0.380848 395.15 0.550848C399.93 0.820848 406.2 -1.01914 409.13 1.34086C412.22 3.84086 410.03 10.3108 410.05 15.0408C410.16 36.0108 410.12 56.9708 410.09 77.9408C410.05 101.781 393.73 119.451 369.75 121.681C347.29 123.771 326.79 108.351 322.45 86.0808C319.18 69.3408 327.05 50.9508 341.4 41.8108C355.95 32.5408 374.62 33.1308 388.97 43.3208C389.46 43.6708 389.94 44.0408 391.23 45.0008H391.22ZM391.2 78.7508C391.33 64.5108 380.54 53.4209 366.48 53.3409C352.16 53.2609 341.15 63.9208 341.01 78.0108C340.87 92.3608 351.96 103.861 366 103.941C379.9 104.021 391.07 92.8508 391.19 78.7508H391.2Z" fill="white"/>
<path d="M311.53 78.5008C311.46 102.641 291.91 121.791 267.38 121.741C242.46 121.691 223.32 102.361 223.42 77.3508C223.51 53.8708 243.4 35.1408 268.08 35.3008C292.53 35.4508 311.6 54.4208 311.53 78.5008ZM292.48 78.6108C292.55 64.1308 281.99 53.2808 267.81 53.2508C253.44 53.2208 242.44 63.8608 242.33 77.9008C242.22 92.3108 253.12 103.551 267.35 103.701C281.36 103.841 292.41 92.8208 292.47 78.6208L292.48 78.6108Z" fill="white"/>
<path d="M207.8 94.2909C207.8 101.551 207.64 108.821 207.87 116.081C207.97 119.201 206.97 120.091 203.93 119.881C200.13 119.621 196.28 119.601 192.48 119.881C189.21 120.131 188.65 118.771 188.68 115.881C188.82 103.661 188.76 91.4509 188.72 79.2309C188.7 71.7509 186.83 64.9109 181.33 59.4309C170.47 48.6009 151.64 52.4809 146.07 66.7609C144.45 70.9209 143.58 75.2609 143.6 79.7609C143.65 91.6509 143.5 103.541 143.69 115.421C143.74 118.721 143.12 120.201 139.43 119.881C135.47 119.541 131.46 119.751 127.48 119.831C125.73 119.861 124.66 119.551 124.72 117.441C125.17 101.451 123.23 85.3409 125.62 69.4909C129.05 46.6809 145.42 34.1109 168.51 35.3009C191.34 36.4709 206.48 51.5809 207.54 74.4809C207.84 81.0709 207.59 87.6808 207.59 94.2808C207.66 94.2808 207.74 94.2808 207.81 94.2808L207.8 94.2909Z" fill="white"/>
<path d="M434.01 78.4009C434.01 66.3509 434.21 54.2909 433.9 42.2509C433.79 37.9909 435.2 36.8409 439.2 37.2109C442.66 37.5309 446.18 37.4509 449.66 37.2209C452.39 37.0409 452.91 38.1009 452.9 40.5909C452.82 65.8509 452.8 91.1009 452.91 116.361C452.92 119.211 452.07 120.041 449.29 119.881C445.48 119.661 441.64 119.631 437.84 119.881C434.77 120.091 433.89 119.121 433.94 116.041C434.12 103.501 434.01 90.9509 434.01 78.4009Z" fill="white"/>
<path d="M443.54 23.8609C436.63 23.8609 431.65 18.9709 431.58 12.1009C431.51 5.49087 436.77 0.080865 443.34 0.000864998C449.77 -0.079135 455.32 5.40088 455.41 11.9209C455.51 18.5009 450.17 23.8609 443.53 23.8609H443.54Z" fill="white"/>
</svg>
