<svg width="345" height="70" viewBox="0 0 345 70" fill="none" xmlns="http://www.w3.org/2000/svg">
<path d="M208.692 18.6952V0H217.883C221.004 0 223.502 0.895439 225.393 2.67853C227.284 4.46162 228.225 6.75083 228.225 9.53838C228.225 12.762 226.973 15.2147 224.467 16.881C222.646 18.0801 220.319 18.6874 217.486 18.6874H208.692V18.6952ZM213.463 15.4249H217.152C219.323 15.4249 220.902 14.9266 221.891 13.9221C222.879 12.9177 223.369 11.4616 223.369 9.54616C223.369 7.6307 222.848 6.09677 221.805 4.95996C220.762 3.81535 219.253 3.24694 217.276 3.24694H213.455V15.4249H213.463Z" fill="#134D91"/>
<path d="M231.548 18.6952V0H248.871V3.19244H236.319V7.37375H247.323V10.4883H236.319V15.5339H248.965V18.6952H231.548Z" fill="#134D91"/>
<path d="M258.856 18.6952L250.918 0H255.922L260.07 10.8231L261.089 13.8053H261.151C261.525 12.6218 261.867 11.6251 262.171 10.8231L266.303 0H271.144L263.206 18.6952H258.856Z" fill="#134D91"/>
<path d="M208.692 42.2414V23.5461H219.494C221.758 23.5461 223.58 24.0289 224.98 24.9866C226.373 25.9444 227.074 27.198 227.074 28.7553C227.074 31.1457 225.634 32.6485 222.762 33.2792V33.357C223.883 33.6218 224.723 34.0345 225.284 34.5951C225.844 35.1635 226.202 36.0044 226.358 37.1179C226.404 37.5384 226.451 38.0289 226.506 38.5973C226.56 39.1657 226.607 39.6095 226.638 39.9444C226.669 40.2792 226.716 40.6062 226.77 40.941C226.825 41.2758 226.902 41.5328 227.004 41.7119C227.105 41.8988 227.229 42.0156 227.385 42.0623V42.2491H222.809C222.723 42.218 222.646 42.1479 222.576 42.0545C222.513 41.9611 222.451 41.8209 222.412 41.6496C222.366 41.4783 222.327 41.2992 222.295 41.1123C222.264 40.9255 222.233 40.6919 222.194 40.4038C222.163 40.1157 222.132 39.8665 222.109 39.6485C222.085 39.4305 222.062 39.1424 222.023 38.7842C221.992 38.426 221.961 38.1457 221.937 37.9355C221.743 35.8098 220.202 34.743 217.323 34.743H213.471V42.2491H208.692V42.2414ZM213.463 26.6062V31.8075H218.537C219.79 31.8075 220.747 31.574 221.416 31.099C222.085 30.6318 222.42 30.0089 222.42 29.2458C222.42 28.4594 222.101 27.8287 221.463 27.3381C220.825 26.8476 219.891 26.6062 218.661 26.6062H213.463Z" fill="#134D91"/>
<path d="M230.856 42.2414V23.5461H248.179V26.7386H235.626V30.9199H246.63V34.0345H235.626V39.0801H248.272V42.2414H230.856Z" fill="#134D91"/>
<path d="M251.969 42.2414V23.5461H258.692L262.015 32.9288C262.256 33.6296 262.505 34.4004 262.754 35.2414C263.004 36.0901 263.198 36.7519 263.33 37.2425L263.494 37.9744H263.556C263.976 36.1757 264.459 34.4939 265.004 32.9288L268.334 23.5461H275.151V42.2414H270.708V31.5194L270.902 27.6496H270.84C270.49 29.1134 270.147 30.297 269.821 31.208L265.766 42.2414H261.19L257.237 31.208L256.218 27.6496H256.155C256.288 29.2147 256.35 30.5072 256.35 31.5194V42.2414H251.969Z" fill="#134D91"/>
<path d="M298.085 39.921C296.023 41.743 293.276 42.654 289.852 42.654C286.428 42.654 283.673 41.743 281.603 39.921C279.525 38.0989 278.49 35.7708 278.49 32.9288C278.49 30.0867 279.525 27.7508 281.603 25.921C283.681 24.0912 286.428 23.1724 289.852 23.1724C293.276 23.1724 296.023 24.0912 298.085 25.921C300.148 27.7508 301.183 30.0867 301.183 32.9288C301.183 35.7708 300.148 38.0989 298.085 39.921ZM285.058 37.6863C286.186 38.9243 287.797 39.5394 289.883 39.5394C291.969 39.5394 293.564 38.9243 294.661 37.6941C295.758 36.4638 296.311 34.8754 296.311 32.921C296.311 30.9666 295.758 29.3781 294.661 28.1401C293.564 26.9021 291.969 26.2869 289.883 26.2869C287.797 26.2869 286.186 26.9021 285.058 28.1401C283.93 29.3781 283.362 30.9744 283.362 32.921C283.362 34.8676 283.93 36.4482 285.058 37.6863Z" fill="#134D91"/>
<path d="M302.14 26.7308V23.5383H321.082V26.7308H314V42.2335H309.222V26.7308H302.14Z" fill="#134D91"/>
<path d="M341.634 39.921C339.572 41.743 336.825 42.654 333.4 42.654C329.976 42.654 327.221 41.743 325.151 39.921C323.074 38.0989 322.039 35.7708 322.039 32.9288C322.039 30.0867 323.074 27.7508 325.151 25.921C327.229 24.0912 329.976 23.1724 333.4 23.1724C336.825 23.1724 339.572 24.0912 341.634 25.921C343.696 27.7508 344.731 30.0867 344.731 32.9288C344.731 35.7708 343.696 38.0989 341.634 39.921ZM328.607 37.6863C329.735 38.9243 331.346 39.5394 333.432 39.5394C335.517 39.5394 337.112 38.9243 338.21 37.6941C339.307 36.4638 339.86 34.8754 339.86 32.921C339.86 30.9666 339.307 29.3781 338.21 28.1401C337.112 26.9021 335.517 26.2869 333.432 26.2869C331.346 26.2869 329.735 26.9021 328.607 28.1401C327.478 29.3781 326.91 30.9744 326.91 32.921C326.91 34.8676 327.47 36.4482 328.607 37.6863Z" fill="#134D91"/>
<path d="M218.871 66.2003C215.688 66.2003 213.214 65.663 211.463 64.5963C209.704 63.5218 208.786 61.9956 208.692 60.0101H213.369C213.525 61.1235 214.023 61.9255 214.871 62.4161C215.72 62.9066 216.988 63.148 218.677 63.148C220.015 63.148 221.113 62.9533 221.969 62.5562C222.825 62.1669 223.253 61.5596 223.253 60.742C223.253 60.4461 223.206 60.1814 223.105 59.9478C223.004 59.7142 222.801 59.504 222.498 59.3171C222.187 59.138 221.93 58.9901 221.704 58.8733C221.486 58.7565 221.081 58.6397 220.482 58.5073C219.891 58.3749 219.439 58.2815 219.128 58.2192C218.817 58.1569 218.249 58.0479 217.416 57.8922C216.404 57.6975 215.58 57.534 214.926 57.3938C214.28 57.2537 213.564 57.0357 212.786 56.7398C212.008 56.4439 211.393 56.1169 210.941 55.7587C210.49 55.4005 210.109 54.9333 209.805 54.3493C209.494 53.7654 209.346 53.0957 209.346 52.3482C209.346 50.5496 210.171 49.1714 211.836 48.2058C213.494 47.2403 215.673 46.7576 218.373 46.7576C221.05 46.7576 223.19 47.2637 224.794 48.2759C226.397 49.2882 227.284 50.7286 227.463 52.5896H222.887C222.755 51.6864 222.28 50.9856 221.455 50.4951C220.63 50.0045 219.595 49.7631 218.342 49.7631C217.043 49.7631 216.015 49.9656 215.245 50.3627C214.474 50.7676 214.093 51.2971 214.093 51.9589C214.093 52.6753 214.474 53.1969 215.229 53.524C215.984 53.8588 217.323 54.1858 219.229 54.5206C220.373 54.7153 221.307 54.8944 222.031 55.0579C222.755 55.2214 223.541 55.4628 224.389 55.7665C225.237 56.0701 225.891 56.405 226.366 56.7709C226.84 57.1369 227.229 57.6196 227.548 58.2192C227.867 58.8187 228.023 59.5117 228.023 60.2982C228.023 62.1436 227.175 63.5918 225.486 64.6352C223.797 65.6786 221.595 66.2003 218.871 66.2003Z" fill="#134D91"/>
<path d="M231.65 65.7797V47.0923H236.428V65.7875H231.65V65.7797Z" fill="#134D91"/>
<path d="M240.809 65.7797V47.0923H247.533L250.856 56.4749C251.097 57.1757 251.346 57.9466 251.595 58.7875C251.844 59.6362 252.039 60.2981 252.171 60.7886L252.334 61.5205H252.397C252.817 59.7219 253.299 58.04 253.844 56.4749L257.175 47.0923H263.992V65.7875H259.548V55.0656L259.743 51.1957H259.681C259.33 52.6596 258.988 53.8431 258.661 54.7541L254.607 65.7875H250.031L246.078 54.7541L245.058 51.1957H244.996C245.128 52.7608 245.19 54.0534 245.19 55.0656V65.7875H240.809V65.7797Z" fill="#134D91"/>
<path d="M268.342 65.7797V47.0923H278.685C281.362 47.0923 283.416 47.6763 284.848 48.8442C286.257 49.9966 286.957 51.4138 286.957 53.1034C286.957 54.8787 286.257 56.3114 284.848 57.3937C283.44 58.476 281.517 59.0133 279.082 59.0133H273.284V65.7875H268.342V65.7797ZM273.284 50.3859V55.9299H278.226C279.455 55.9299 280.397 55.6807 281.058 55.1824C281.72 54.6841 282.047 53.9989 282.047 53.1268C282.047 52.2547 281.72 51.5773 281.058 51.1023C280.397 50.6195 279.478 50.3859 278.288 50.3859H273.284Z" fill="#134D91"/>
<path d="M290.046 65.7797V47.0923H294.825V62.6184H305.891V65.7797H290.046Z" fill="#134D91"/>
<path d="M309.183 65.7797V47.0923H326.506V50.2847H313.953V54.466H324.957V57.5806H313.953V62.6262H326.599V65.7875H309.183V65.7797Z" fill="#134D91"/>
<path d="M15.284 66.2314C10.5992 62.0267 6.87937 57.1602 4.13229 51.6318C1.37743 46.0957 0 39.9288 0 33.1157C0 26.3026 1.37743 20.1201 4.12451 14.5684C6.87937 9.0089 10.5992 4.15795 15.284 0L21.2218 4.71079C16.8794 8.91546 13.7354 13.2603 11.8054 17.7531C9.87548 22.2458 8.9105 27.3693 8.9105 33.1157C8.9105 38.8153 9.87548 43.9232 11.8054 48.4394C13.7354 52.9555 16.8716 57.3159 21.2218 61.5206L15.284 66.2314Z" fill="#134D91"/>
<path d="M36.5759 33.4037L47.7977 4.71069H56.3424L67.572 33.4037H58.8094L55.4786 24.13L52.2179 14.3503H51.93L48.6693 24.13L45.3386 33.4037H36.5759Z" fill="#134D91"/>
<path d="M95.5252 70.0001C89.7353 70.0001 84.0077 69.2603 78.3579 67.7887C72.7081 66.3171 67.4007 64.059 62.428 61.0145L65.1828 56.1636C68.319 57.8999 71.6498 59.2937 75.175 60.3293C78.7003 61.3649 82.2101 62.1046 85.712 62.5407C89.2139 62.9767 92.4824 63.1947 95.5252 63.1947C98.568 63.1947 101.837 62.9767 105.338 62.5407C108.84 62.1046 112.35 61.3727 115.875 60.3293C119.401 59.2937 122.731 57.8999 125.868 56.1636L128.622 61.0145C123.696 64.059 118.397 66.3171 112.724 67.7887C107.051 69.2603 101.315 70.0001 95.5252 70.0001Z" fill="#134D91"/>
<path d="M123.479 33.4037L134.7 4.71069H143.245L154.475 33.4037H145.712L142.381 24.13L139.121 14.3503H138.833L135.572 24.13L132.241 33.4037H123.479Z" fill="#134D91"/>
<path d="M175.766 66.2314L169.829 61.5206C174.171 57.3159 177.315 52.9555 179.245 48.4394C181.175 43.9232 182.14 38.8153 182.14 33.1157C182.14 27.3693 181.175 22.2458 179.245 17.7531C177.315 13.2603 174.179 8.91546 169.829 4.71079L175.766 0C180.451 4.15795 184.171 9.0089 186.918 14.5684C189.673 20.1201 191.043 26.3103 191.043 33.1157C191.043 39.9288 189.665 46.0957 186.918 51.6318C184.163 57.1602 180.451 62.0267 175.766 66.2314Z" fill="#134D91"/>
</svg>
