<svg width="529" height="149" viewBox="0 0 529 149" fill="none" xmlns="http://www.w3.org/2000/svg">
<path d="M305.581 69.7816C305.581 86.9716 305.531 104.162 305.631 121.342C305.651 124.392 304.511 126.232 301.891 127.712C290.381 134.212 278.941 140.812 267.521 147.472C265.091 148.892 262.981 148.932 260.541 147.512C248.911 140.732 237.231 134.032 225.531 127.362C223.331 126.112 222.401 124.452 222.411 121.922C222.471 108.302 222.461 94.6916 222.391 81.0716C222.381 78.5316 223.421 76.9116 225.601 75.6616C237.371 68.9516 249.101 62.1816 260.821 55.3816C262.991 54.1216 264.971 54.0316 267.121 55.3816C269.371 56.7916 271.731 58.0316 274.031 59.3716C276.981 61.0716 277.681 60.7116 277.681 57.4016C277.691 39.8016 277.691 22.1916 277.701 4.5916C277.701 3.8416 277.641 3.09161 277.741 2.35161C278.021 0.331613 279.451 -0.518386 281.331 0.321614C282.771 0.961614 284.131 1.7916 285.501 2.5616C291.021 5.6316 296.481 8.81162 302.071 11.7616C304.711 13.1516 305.651 15.0716 305.641 17.9716C305.561 35.2416 305.601 52.5116 305.601 69.7816H305.581ZM277.301 101.682C279.371 95.3416 275.931 92.4616 270.871 89.3216C265.571 86.0316 261.871 86.5616 256.661 89.4616C251.401 92.3816 249.851 95.6316 249.821 101.432C249.781 107.372 251.551 110.562 256.781 113.622C262.101 116.732 265.831 116.722 271.011 113.562C275.891 110.582 279.431 107.882 277.311 101.672L277.301 101.682Z" fill="white"/>
<path d="M194.401 100.892C194.401 107.612 194.291 114.342 194.451 121.062C194.521 123.802 193.281 125.392 191.111 126.632C179.661 133.192 168.131 139.612 156.831 146.422C152.941 148.772 150.131 147.222 146.991 145.392C136.881 139.502 126.821 133.512 116.571 127.862C112.801 125.782 111.011 123.422 111.121 118.902C111.431 105.802 111.281 92.6917 111.271 79.5817C111.271 76.5217 113.551 75.3017 115.671 74.0817C124.801 68.8117 133.991 63.6417 143.161 58.4317C145.471 57.1217 147.751 55.7517 150.061 54.4417C151.971 53.3617 153.951 53.4817 155.781 54.5317C167.731 61.3817 179.651 68.3117 191.611 75.1517C193.781 76.3917 194.471 78.0917 194.441 80.4817C194.351 87.2817 194.411 94.0917 194.411 100.902L194.401 100.892Z" fill="white"/>
<path d="M0.0406749 107.352C0.0406749 98.3016 0.100674 89.2516 0.00067399 80.2016C-0.029326 77.5616 0.940675 75.8316 3.21068 74.5316C14.8307 67.9116 26.4407 61.2615 38.0007 54.5215C40.5107 53.0615 42.6607 53.0216 45.2007 54.5016C56.7507 61.2516 68.3507 67.9116 79.9907 74.5016C82.3107 75.8116 83.2507 77.5316 83.2307 80.1316C83.1407 98.4816 83.1307 116.822 83.0807 135.172C83.0707 138.602 81.6907 139.412 78.7407 137.742C72.0207 133.922 65.3507 130.032 58.6107 126.252C56.3207 124.962 55.3707 123.192 55.4007 120.582C55.4907 112.612 55.3807 104.642 55.4807 96.6716C55.5107 93.7916 54.5407 91.7815 51.8807 90.4615C49.3507 89.2115 46.9407 87.7216 44.5407 86.2316C42.6507 85.0516 40.8607 84.9416 38.9307 86.1116C36.2307 87.7416 33.4807 89.3116 30.7207 90.8316C28.6807 91.9516 27.8407 93.5616 27.8607 95.9116C27.9407 104.042 27.8307 112.182 27.9307 120.322C27.9707 123.142 26.9207 125.002 24.4607 126.372C17.7807 130.092 11.1907 133.952 4.54067 137.722C1.52067 139.432 0.0906741 138.562 0.0906741 135.002C0.0806741 125.782 0.0906741 116.572 0.0906741 107.352C0.0806741 107.352 0.0606751 107.352 0.0506751 107.352H0.0406749Z" fill="white"/>
<path d="M333.161 100.802C333.161 94.1615 333.231 87.5115 333.121 80.8715C333.081 78.2515 334.011 76.5015 336.301 75.1915C348.141 68.4415 359.941 61.6315 371.731 54.8015C373.821 53.5915 375.771 53.6316 377.841 54.8316C389.701 61.7216 401.571 68.5915 413.451 75.4415C415.201 76.4515 416.111 77.8115 416.071 79.8815C416.011 83.1215 416.011 86.3615 416.071 89.5915C416.111 91.6415 415.251 93.0315 413.491 94.0515C406.441 98.1215 399.421 102.262 392.361 106.322C389.941 107.712 388.271 106.742 388.231 103.982C388.191 101.082 388.191 98.1715 388.271 95.2615C388.311 93.6715 387.761 92.6215 386.331 91.8415C382.911 89.9615 379.531 87.9915 376.171 86.0015C374.941 85.2715 373.861 85.3615 372.671 86.0615C369.231 88.0815 365.781 90.0915 362.311 92.0515C361.071 92.7515 360.561 93.7415 360.571 95.1015C360.571 99.0015 360.641 102.912 360.551 106.812C360.491 109.172 362.271 109.842 363.821 110.732C375.071 117.182 386.331 123.592 397.571 130.042C398.671 130.672 400.131 131.042 400.151 132.752C400.171 134.562 398.681 135.012 397.481 135.682C390.951 139.332 384.371 142.892 377.891 146.622C375.611 147.932 373.641 147.962 371.371 146.662C359.841 140.042 348.271 133.482 336.681 126.982C334.141 125.562 333.051 123.702 333.121 120.752C333.281 114.112 333.171 107.472 333.171 100.822L333.161 100.802Z" fill="white"/>
<path d="M528.141 100.482C528.141 107.042 528.051 113.592 528.181 120.152C528.241 123.342 526.961 125.512 524.271 127.062C512.751 133.692 501.251 140.362 489.711 146.952C487.241 148.362 484.601 148.362 482.081 146.952C478.531 144.972 475.021 142.902 471.501 140.872C470.851 140.502 470.041 140.112 470.011 139.332C469.981 138.412 471.041 138.422 471.611 138.002C474.621 135.782 477.571 135.902 480.331 138.382C483.961 141.652 487.231 141.282 491.371 138.702C500.661 132.902 510.321 127.692 519.861 122.302C521.361 121.452 521.901 120.372 521.891 118.692C521.851 106.402 521.851 94.1216 521.891 81.8316C521.891 80.3416 521.421 79.4116 520.071 78.6416C509.251 72.4616 498.461 66.2216 487.711 59.9316C486.321 59.1216 485.201 59.3516 483.991 60.0416C476.441 64.4016 468.891 68.7816 461.341 73.1316C458.391 74.8316 455.441 76.5216 452.451 78.1416C450.661 79.1116 449.911 80.3916 449.921 82.5216C449.981 94.3916 449.901 106.262 449.821 118.132C449.811 119.932 450.241 121.222 452.021 122.132C454.901 123.602 457.521 125.572 460.441 126.922C465.151 129.102 468.291 126.942 468.291 121.772C468.301 109.732 468.331 97.7016 468.291 85.6616C468.291 83.7216 468.541 82.4816 470.961 82.5816C474.761 82.7416 474.881 82.7116 474.881 85.6516C474.881 97.8516 474.561 110.072 475.001 122.252C475.371 132.762 466.911 136.922 458.371 133.032C454.601 131.312 451.061 129.082 447.431 127.072C444.451 125.422 443.481 122.582 443.461 119.512C443.351 106.562 443.321 93.6116 443.421 80.6616C443.451 76.9816 445.511 74.5116 448.871 72.7116C455.231 69.3116 461.371 65.5116 467.631 61.9116C472.461 59.1416 477.341 56.4816 482.161 53.7016C484.821 52.1716 487.481 52.3416 489.971 53.7716C501.441 60.3216 512.841 66.9816 524.291 73.5716C526.721 74.9716 528.101 76.8916 528.081 79.7916C528.031 86.6816 528.061 93.5616 528.061 100.452C528.081 100.452 528.111 100.452 528.131 100.452L528.141 100.482Z" fill="white"/>
<path d="M496.271 81.5316C499.011 81.4616 502.391 81.7516 505.601 83.1216C509.801 84.9116 512.081 88.1616 512.791 92.5616C513.041 94.0816 512.371 94.8916 510.731 94.9316C508.431 94.9816 506.311 95.4416 505.361 92.1816C504.701 89.9316 502.631 88.4216 499.831 88.2016C497.341 88.0016 494.871 87.7016 492.381 88.0116C491.641 88.1016 490.891 88.2016 490.171 88.3916C488.021 88.9616 486.621 90.4016 486.521 92.5816C486.421 94.8016 488.401 95.4416 490.081 95.7816C493.501 96.4816 496.971 96.8816 500.421 97.4316C503.051 97.8516 505.631 98.3616 508.131 99.3616C514.641 101.972 516.461 110.372 511.601 115.502C508.451 118.822 504.331 119.732 500.071 120.142C495.741 120.562 491.441 120.262 487.201 119.102C482.051 117.692 478.891 114.242 478.131 109.062C477.831 107.022 478.481 106.242 480.641 106.182C483.261 106.102 485.041 106.392 485.561 109.552C485.921 111.752 488.051 112.872 490.131 113.292C494.231 114.132 498.391 114.182 502.531 113.412C503.731 113.192 504.731 112.582 505.621 111.872C507.801 110.142 507.321 106.632 504.751 105.602C500.131 103.742 495.141 103.782 490.301 103.042C487.781 102.662 485.491 101.792 483.271 100.642C478.151 98.0116 477.831 88.9316 482.861 84.9816C486.621 82.0316 491.001 81.4316 496.271 81.5416V81.5316Z" fill="white"/>
<path d="M382.721 100.702C382.441 102.222 383.541 104.322 381.831 105.652C379.681 107.322 377.361 109.022 374.641 109.452C372.021 109.862 366.611 105.232 366.741 102.952C366.871 100.602 365.701 97.8116 367.431 96.0016C369.271 94.0816 371.771 92.3916 374.471 92.0416C376.731 91.7416 378.381 94.0416 380.451 94.8116C383.421 95.9216 382.561 98.3616 382.721 100.702Z" fill="white"/>
</svg>
