<svg width="399" height="54" viewBox="0 0 399 54" fill="none" xmlns="http://www.w3.org/2000/svg">
<path d="M66.7095 53.4928C59.1195 53.4928 51.5295 53.4028 43.9495 53.5128C33.7795 53.6528 23.5995 53.6328 13.4295 53.6528C10.6795 53.6528 7.97953 53.2528 5.55953 51.8328C2.08953 49.7928 0.579534 46.5528 0.139534 42.7128C-0.400466 38.0228 0.69953 33.5728 2.18953 29.1928C4.59953 22.1228 8.39953 15.9528 14.0595 11.0028C21.5195 4.4828 30.2095 1.25282 40.1295 1.30282C44.3195 1.32282 48.4795 1.61282 52.6395 2.11282C53.0295 2.16282 53.3995 2.14281 53.7995 2.07281C60.8195 0.762807 67.5995 1.6028 74.2095 4.2228C79.7995 6.4428 84.6295 9.78281 88.7395 14.1428C93.5895 19.2928 97.1795 25.2328 99.0795 32.0728C100.13 35.8328 100.73 39.6828 99.9995 43.6128C98.8895 49.6728 94.6995 53.2428 88.5295 53.2728C81.2595 53.3128 73.9895 53.2728 66.7295 53.2728C66.7295 53.3428 66.7295 53.4128 66.7295 53.4828L66.7095 53.4928ZM5.03954 40.1328C5.03954 40.5228 5.03954 40.9128 5.03954 41.3028C5.10954 44.4828 6.74953 47.1428 9.34953 48.0328C12.8495 49.2228 16.3695 49.0128 19.7295 47.5728C22.9395 46.2028 24.2895 43.2928 25.1995 40.1428C26.1595 36.7828 26.9795 33.3728 28.0695 30.0628C29.8095 24.8128 31.8295 19.6728 35.2895 15.2528C35.4595 15.0328 35.7995 14.7028 35.5095 14.4328C35.2395 14.1828 34.8995 14.4928 34.6695 14.6728C33.4995 15.5828 32.1995 15.7728 30.7595 15.5328C29.3595 15.3028 28.4795 15.8228 27.8195 17.0928C27.4895 17.7228 27.1695 18.3528 26.7995 18.9528C26.2495 19.8428 25.4295 20.3428 24.3895 20.5228C22.7895 20.8028 22.2295 21.3828 21.9895 23.0128C21.8995 23.6028 21.8595 24.2128 21.8195 24.8128C21.7095 26.2028 21.1295 27.2028 19.7195 27.6828C17.6395 28.3928 17.4195 28.8028 17.8395 30.9828C17.9495 31.5828 18.0495 32.1728 17.9995 32.7728C17.9095 33.8328 17.5895 34.7628 16.6795 35.4328C15.4995 36.3028 15.2595 37.2228 15.6195 38.6728C15.8495 39.6028 16.3595 40.3528 16.8295 41.1328C17.4795 42.2228 17.3295 43.6028 16.4995 44.2228C15.6295 44.8628 14.3395 44.6128 13.4795 43.5928C13.1895 43.2428 12.9595 42.8328 12.7595 42.4228C12.4995 41.8828 12.3395 41.2828 12.0495 40.7628C10.6295 38.1828 10.8595 35.8128 12.9095 33.6628C13.6195 32.9228 13.9195 32.0628 13.7095 31.0528C13.0395 27.8928 14.3095 25.6128 16.9595 23.9728C17.6295 23.5628 17.9195 23.0128 17.9895 22.2428C18.2695 19.1628 19.7995 17.0928 22.8995 16.3528C23.9095 16.1128 24.5895 15.5528 24.9795 14.6028C25.1295 14.2428 25.3695 13.9328 25.5495 13.5828C26.6595 11.5228 28.4395 10.5928 30.7195 10.7028C32.2095 10.7828 33.4895 10.4028 34.7195 9.5928C36.1195 8.6828 37.6995 8.05281 39.3495 8.45281C40.5495 8.74281 41.3295 8.3528 42.1395 7.6928C42.4295 7.4628 42.7895 7.1728 42.6495 6.7228C42.5195 6.2928 42.0895 6.3528 41.7495 6.3128C40.1495 6.1128 38.5595 6.29281 36.9695 6.42281C31.9495 6.81281 27.2395 8.23281 22.8895 10.7928C15.6595 15.0528 10.6295 21.1828 7.62953 28.9728C6.24953 32.5428 5.13954 36.2028 5.03954 40.0828V40.1328Z" fill="white"/>
<path d="M174.93 46.9227C172.95 49.4427 170.61 51.2326 167.72 52.1926C162.67 53.8626 157.7 53.8526 152.9 51.3126C149.86 49.7026 147.72 47.2126 146.42 44.1026C143.6 37.3826 143.24 30.4326 145.55 23.5626C148.09 16.0226 153.6 11.5727 161.4 10.1427C167.43 9.03266 173.32 9.73264 178.97 12.1826C180.02 12.6426 180.93 13.3027 181.9 13.8927C182.49 14.2527 182.49 14.7926 182.49 15.3726C182.49 23.4526 182.51 31.5226 182.52 39.6026C182.52 40.7826 182.59 41.9526 183.06 43.0326C183.95 45.0626 185.71 45.7627 187.75 45.9827C189.1 46.1327 189.3 46.3327 189.3 47.7027C189.3 49.0127 189.29 50.3226 189.3 51.6326C189.31 52.3426 189.01 52.8827 188.31 52.8927C185.31 52.9527 182.28 53.2626 179.44 51.8826C177.33 50.8526 175.94 49.1726 174.93 46.9126V46.9227ZM173.88 29.2126C173.88 26.2726 173.83 23.3327 173.9 20.3927C173.93 19.1627 173.42 18.5327 172.37 18.0527C170.08 16.9927 167.65 16.7627 165.2 16.9227C160.97 17.2027 157.53 18.9327 155.36 22.7627C153.51 26.0227 153.07 29.5826 153.19 33.2226C153.29 36.3826 153.7 39.5126 155.51 42.2526C156.95 44.4526 158.92 45.7927 161.58 46.0427C165.9 46.4427 169.29 44.6927 172.07 41.5227C173.37 40.0427 174.12 38.4327 173.94 36.3327C173.74 33.9727 173.89 31.5826 173.89 29.2126H173.88Z" fill="white"/>
<path d="M194.479 23.5828C194.479 17.1028 194.479 10.6128 194.469 4.13279C194.469 3.35279 194.719 2.88278 195.459 2.59278C197.439 1.81278 199.389 0.972781 201.359 0.182781C202.509 -0.277219 203.139 0.132803 203.139 1.3928C203.159 6.8828 203.159 12.3828 203.169 17.8728C203.169 21.2428 203.179 24.6028 203.199 27.9728C203.199 28.3028 203.049 28.7528 203.429 28.9428C203.849 29.1428 204.059 28.7128 204.279 28.4728C207.059 25.4528 209.939 22.5228 212.769 19.5528C215.329 16.8628 217.899 14.1728 220.509 11.5228C220.909 11.1128 221.369 10.9628 221.939 10.9628C224.209 10.9828 226.479 10.9728 228.749 10.9628C229.339 10.9628 229.929 10.9628 230.159 11.6428C230.369 12.2528 230.079 12.7128 229.659 13.1528C225.289 17.6928 220.949 22.2528 216.579 26.7828C216.069 27.3028 215.979 27.7328 216.349 28.3628C218.929 32.7128 221.309 37.2028 224.549 41.1228C226.739 43.7728 229.369 45.7128 233.009 45.7628C233.779 45.7728 234.079 46.2228 234.079 46.9228C234.079 48.5928 234.079 50.2528 234.079 51.9228C234.079 52.7628 233.619 53.0828 232.819 53.1728C226.699 53.8628 222.039 51.4928 218.399 46.6328C215.569 42.8528 213.169 38.8128 210.629 34.8528C209.949 33.7928 209.919 33.7728 209.069 34.6728C207.359 36.4728 205.669 38.2828 203.929 40.0428C203.459 40.5128 203.279 40.9928 203.289 41.6428C203.309 44.8328 203.299 48.0228 203.289 51.2128C203.289 52.7028 203.149 52.8228 201.649 52.8528C199.809 52.8828 197.969 52.9428 196.119 52.9528C194.899 52.9528 194.629 52.6528 194.629 51.4428C194.629 42.1628 194.629 32.8728 194.629 23.5928C194.579 23.5928 194.529 23.5928 194.489 23.5928L194.479 23.5828Z" fill="white"/>
<path d="M263.26 34.6529C257.55 34.6529 251.84 34.6729 246.14 34.6329C245.18 34.6329 244.98 34.9429 245.16 35.8229C245.61 38.0729 246.33 40.1729 247.86 41.9529C249.83 44.2429 252.42 45.2329 255.31 45.5729C260 46.1329 264.47 45.2029 268.82 43.4929C270.02 43.0229 270.53 43.3129 270.67 44.5929C270.83 46.0329 270.99 47.4729 271.16 48.9129C271.23 49.5429 271.07 50.0329 270.45 50.3029C263.41 53.3829 256.15 54.1029 248.8 51.7929C242.04 49.6729 238 44.8529 236.54 37.9729C235.11 31.2329 235.51 24.6329 238.91 18.4829C241.83 13.1929 246.49 10.4029 252.41 9.67289C255.82 9.25289 259.19 9.44287 262.47 10.5929C267.68 12.4029 270.86 16.1029 272.32 21.2929C273.45 25.2929 273.17 29.3629 272.49 33.4029C272.35 34.2329 271.92 34.5929 271.04 34.5829C268.45 34.5429 265.86 34.5729 263.27 34.5729C263.27 34.6029 263.27 34.6329 263.27 34.6629L263.26 34.6529ZM262.36 28.1829C262.81 28.1829 263.1 28.1429 263.38 28.1829C264.39 28.3429 264.72 27.9229 264.58 26.9529C264.44 26.0129 264.39 25.0529 264.25 24.1129C263.53 19.4929 261.06 16.9429 256.58 16.5329C252.68 16.1829 249.25 17.2129 247.06 20.7929C245.91 22.6729 245.4 24.7629 245.12 26.9229C244.95 28.2629 245 28.3029 246.36 28.3029C251.75 28.2629 257.14 28.4129 262.36 28.1929V28.1829Z" fill="white"/>
<path d="M341.91 52.7629C337.22 52.8829 332.84 51.8429 329.02 49.0029C325.69 46.5329 323.53 43.2229 322.34 39.2929C320.53 33.3529 320.61 27.3829 322.71 21.5629C324.47 16.7029 327.76 12.9929 332.6 11.0329C338.99 8.45286 345.47 8.46288 351.78 11.3929C356.92 13.7829 359.99 18.0329 361.48 23.3829C363 28.8229 362.91 34.3129 361.12 39.6929C358.8 46.6629 353.98 50.9029 346.77 52.3929C345.97 52.5529 345.17 52.6929 344.36 52.7529C343.55 52.8129 342.73 52.7629 341.92 52.7629H341.91ZM330.23 30.8729C330.15 32.2729 330.24 33.7229 330.46 35.1629C330.81 37.4129 331.39 39.6129 332.74 41.4929C335.53 45.3729 339.51 46.0829 343.9 45.5129C348.19 44.9529 351 42.5529 352.29 38.4329C353.76 33.7129 353.81 28.9429 352.41 24.2129C351.03 19.5629 347.88 16.9229 342.98 16.4729C337.77 16.0029 333.7 18.1829 331.68 22.6229C330.5 25.2129 330.11 27.9729 330.23 30.8629V30.8729Z" fill="white"/>
<path d="M279.15 32.3128C278.93 25.2228 279.04 18.6728 279.03 12.1128C279.03 10.7628 279.21 10.5428 280.54 10.5228C282.49 10.4828 284.44 10.4928 286.39 10.4828C287.35 10.4828 287.83 10.9028 287.71 11.9228C287.64 12.5228 287.68 13.1228 287.71 13.7328C287.72 13.9828 287.54 14.3228 287.89 14.4828C288.22 14.6328 288.4 14.3128 288.61 14.1628C293.11 10.9628 298.16 9.98283 303.55 10.6628C310.13 11.4928 314 15.4828 314.89 22.1028C315.05 23.2628 315.13 24.4228 315.14 25.5928C315.14 34.1328 315.16 42.6728 315.16 51.2128C315.16 52.7228 314.94 52.9328 313.43 52.9228C311.55 52.9228 309.67 52.8928 307.79 52.9128C306.93 52.9128 306.55 52.5328 306.57 51.7028C306.57 51.6328 306.57 51.5628 306.57 51.4928C306.55 43.1328 306.52 34.7628 306.49 26.4028C306.49 25.0928 306.39 23.7828 305.98 22.5228C305.03 19.6128 302.82 18.4128 299.96 18.1428C295.49 17.7128 291.68 19.2028 288.36 22.1128C287.92 22.5028 287.68 22.9728 287.68 23.6028C287.72 28.9228 287.74 34.2328 287.76 39.5528C287.78 43.3128 287.81 47.0628 287.82 50.8228C287.82 52.8628 287.68 53.0128 285.68 53.0128C284.01 53.0128 282.35 53.0128 280.68 53.0128C279.39 53.0128 279.13 52.7428 279.13 51.4628C279.13 44.9028 279.13 38.3528 279.13 32.3228L279.15 32.3128Z" fill="white"/>
<path d="M382.03 52.8129C376.02 52.6229 371.61 51.7829 367.48 49.6829C366.71 49.2929 366.35 48.8429 366.51 47.9429C366.76 46.5129 366.89 45.0729 367.11 43.6329C367.29 42.4629 367.98 42.1629 369.11 42.7329C373 44.6929 377.11 45.8129 381.47 45.7529C383.65 45.7229 385.86 45.5529 387.81 44.3229C390.42 42.6729 390.53 38.9129 388.04 37.0529C386.36 35.7929 384.45 35.0929 382.49 34.5029C379.38 33.5729 376.21 32.7929 373.34 31.1829C369.47 29.0029 367.31 25.8629 367.42 21.3029C367.52 16.9329 369.58 13.7629 373.27 11.6329C377.54 9.17288 382.22 8.88288 386.98 9.32288C389.75 9.58288 392.41 10.3029 394.93 11.5129C396.65 12.3429 396.74 12.5229 396.48 14.3529C396.32 15.4729 396.18 16.5929 396.01 17.7129C395.84 18.8729 395.23 19.1929 394.15 18.6629C391.95 17.5729 389.68 16.6529 387.23 16.3429C384.28 15.9629 381.38 16.0329 378.64 17.4729C375.78 18.9829 375.52 22.8529 378.22 24.6229C380.59 26.1829 383.35 26.7929 386 27.6829C388.92 28.6629 391.76 29.7729 394.3 31.5929C397.15 33.6429 398.46 36.4629 398.55 39.8629C398.63 42.7329 398.15 45.4729 396.27 47.8229C394.44 50.1029 391.97 51.2129 389.25 51.9129C386.42 52.6529 383.51 52.7929 382.03 52.7829V52.8129Z" fill="white"/>
<path d="M119.27 30.6029C119.27 27.0629 119.27 23.5129 119.27 19.9729C119.27 18.7595 118.68 18.1529 117.5 18.1529C115.73 18.1529 113.96 18.1829 112.18 18.1729C111.01 18.1729 110.68 17.7529 110.84 16.5829C111.02 15.2529 111.26 13.9329 111.38 12.5929C111.47 11.6129 111.95 11.2229 112.89 11.2229C114.63 11.2329 116.37 11.1829 118.1 11.2429C118.97 11.2729 119.18 10.9629 119.16 10.1329C119.11 8.18288 119.16 6.23287 119.14 4.28287C119.14 3.46287 119.48 2.97289 120.24 2.67289C122.18 1.91289 124.11 1.10289 126.04 0.332891C127.29 -0.167109 127.82 0.202881 127.84 1.57288C127.87 4.33288 127.91 7.09288 127.93 9.85288C127.94 11.2129 127.93 11.2129 129.35 11.2029C132.5 11.1829 135.66 11.1629 138.81 11.1529C140.17 11.1529 140.47 11.4629 140.48 12.8529C140.48 14.0929 140.49 15.3329 140.48 16.5729C140.48 17.8029 140.19 18.0829 139 18.0929C135.67 18.1129 132.33 18.1629 129 18.1329C128.15 18.1329 127.91 18.3929 127.91 19.2229C127.96 26.0629 127.96 32.8929 128 39.7329C128.02 43.2729 129.99 45.3929 133.48 45.8329C135.49 46.0929 137.43 45.8329 139.38 45.4429C140.57 45.2029 140.92 45.4129 141.11 46.6429C141.29 47.8329 141.39 49.0329 141.55 50.2229C141.75 51.7029 141.51 52.1129 140.04 52.5129C136.75 53.4229 133.42 53.5929 130.04 53.1029C127.5 52.7329 125.14 51.9529 123.16 50.2929C120.33 47.9329 119.38 44.7329 119.31 41.2129C119.24 37.6729 119.29 34.1329 119.29 30.5829H119.26L119.27 30.6029Z" fill="white"/>
</svg>
